<?xml version="1.0" encoding="UTF-8" standalone="no"?>
<svg
   xmlns:dc="http://purl.org/dc/elements/1.1/"
   xmlns:cc="http://creativecommons.org/ns#"
   xmlns:rdf="http://www.w3.org/1999/02/22-rdf-syntax-ns#"
   xmlns:svg="http://www.w3.org/2000/svg"
   xmlns="http://www.w3.org/2000/svg"
   xmlns:sodipodi="http://sodipodi.sourceforge.net/DTD/sodipodi-0.dtd"
   xmlns:inkscape="http://www.inkscape.org/namespaces/inkscape"
   version="1.1"
   x="0px"
   y="0px"
   viewBox="0 0 62 62"
   enable-background="new 0 0 62 62"
   xml:space="preserve"
   id="svg14"
   sodipodi:docname="book.svg"
   width="62"
   height="62"
   inkscape:version="0.92.2 5c3e80d, 2017-08-06"><metadata
     id="metadata20"><rdf:RDF><cc:Work
         rdf:about=""><dc:format>image/svg+xml</dc:format><dc:type
           rdf:resource="http://purl.org/dc/dcmitype/StillImage" /><dc:title></dc:title></cc:Work></rdf:RDF></metadata><defs
     id="defs18" /><sodipodi:namedview
     pagecolor="#ffffff"
     bordercolor="#666666"
     borderopacity="1"
     objecttolerance="10"
     gridtolerance="10"
     guidetolerance="10"
     inkscape:pageopacity="0"
     inkscape:pageshadow="2"
     inkscape:window-width="2560"
     inkscape:window-height="1371"
     id="namedview16"
     showgrid="false"
     fit-margin-top="0"
     fit-margin-left="0"
     fit-margin-right="0"
     fit-margin-bottom="0"
     inkscape:zoom="3.0451613"
     inkscape:cx="-20.690678"
     inkscape:cy="23.25"
     inkscape:window-x="0"
     inkscape:window-y="0"
     inkscape:window-maximized="1"
     inkscape:current-layer="svg14" /><g
     id="g3715"><g
       id="g8"><path
         id="path2"
         d="M 48,0 H 14 C 11.2,0 9,2.2 9,5 v 52 c 0,2.8 2.2,5 5,5 H 53 V 53 52 5 C 53,2.2 50.8,0 48,0 Z M 14,2 h 3 v 50 h -3 c -1.1,0 -2.2,0.4 -3,1 V 5 c 0,-1.7 1.3,-3 3,-3 z m 0,58 c -1.7,0 -3,-1.3 -3,-3 0,-1.7 1.3,-3 3,-3 h 37 v 2 H 15 v 2 h 36 v 2 z m 5,-8 V 2 h 29 c 1.7,0 3,1.3 3,3 v 47 z"
         inkscape:connector-curvature="0" /><path
         id="path4"
         d="m 32,24 c 0,0.6 -0.4,1 -1,1 H 29 V 14 h -2 v 11 h -2 c -0.6,0 -1,-0.4 -1,-1 V 14 h -2 v 10 c 0,1.7 1.3,3 3,3 h 2 v 19 h 2 V 27 h 2 c 1.7,0 3,-1.3 3,-3 V 14 h -2 z"
         inkscape:connector-curvature="0" /><path
         id="path6"
         d="m 42,14 c -3.3,0 -6,3.4 -6,7.5 0,3.7 2.2,6.8 5,7.4 V 46 h 2 V 28.9 c 2.8,-0.6 5,-3.7 5,-7.4 C 48,17.4 45.3,14 42,14 Z m 0,13 c -2.2,0 -4,-2.5 -4,-5.5 0,-3 1.8,-5.5 4,-5.5 2.2,0 4,2.5 4,5.5 0,3 -1.8,5.5 -4,5.5 z"
         inkscape:connector-curvature="0" /></g></g></svg>