<?xml version="1.0" encoding="UTF-8" standalone="no"?>
<svg
   xmlns:dc="http://purl.org/dc/elements/1.1/"
   xmlns:cc="http://creativecommons.org/ns#"
   xmlns:rdf="http://www.w3.org/1999/02/22-rdf-syntax-ns#"
   xmlns:svg="http://www.w3.org/2000/svg"
   xmlns="http://www.w3.org/2000/svg"
   xmlns:sodipodi="http://sodipodi.sourceforge.net/DTD/sodipodi-0.dtd"
   xmlns:inkscape="http://www.inkscape.org/namespaces/inkscape"
   version="1.1"
   x="0px"
   y="0px"
   viewBox="0 0 91 91"
   enable-background="new 0 0 100 100"
   xml:space="preserve"
   id="svg14"
   sodipodi:docname="cook.svg"
   width="91"
   height="91"
   inkscape:version="0.92.2 5c3e80d, 2017-08-06"><metadata
     id="metadata20"><rdf:RDF><cc:Work
         rdf:about=""><dc:format>image/svg+xml</dc:format><dc:type
           rdf:resource="http://purl.org/dc/dcmitype/StillImage" /><dc:title></dc:title></cc:Work></rdf:RDF></metadata><defs
     id="defs18" /><sodipodi:namedview
     pagecolor="#ffffff"
     bordercolor="#666666"
     borderopacity="1"
     objecttolerance="10"
     gridtolerance="10"
     guidetolerance="10"
     inkscape:pageopacity="0"
     inkscape:pageshadow="2"
     inkscape:window-width="2560"
     inkscape:window-height="1371"
     id="namedview16"
     showgrid="false"
     fit-margin-top="0"
     fit-margin-left="0"
     fit-margin-right="0"
     fit-margin-bottom="0"
     inkscape:zoom="1.888"
     inkscape:cx="49.083284"
     inkscape:cy="32.500124"
     inkscape:window-x="0"
     inkscape:window-y="0"
     inkscape:window-maximized="1"
     inkscape:current-layer="svg14" /><g
     id="g26"
     transform="translate(-4.5000229,-4.5000618)"><g
       id="g8"><path
         id="path2"
         d="m 87.746,40.058 c -1.343,-2.067 -3.714,-1.936 -3.863,-1.589 -0.305,0.686 -0.653,1.245 -0.901,1.713 -0.281,0.456 -0.527,0.798 -0.683,1.035 -0.163,0.233 -0.251,0.357 -0.251,0.357 0,0 0.03,-0.15 0.086,-0.43 0.063,-0.276 0.139,-0.687 0.267,-1.19 0.084,-0.518 0.219,-1.133 0.322,-1.839 0.05,-0.351 0.103,-0.724 0.159,-1.118 0.033,-0.391 0.068,-0.803 0.105,-1.232 0.036,-0.426 0.025,-0.87 0.042,-1.323 0.008,-0.454 -0.036,-0.919 -0.05,-1.392 -0.055,-0.471 -0.101,-0.952 -0.18,-1.435 -0.122,-0.476 -0.163,-0.974 -0.335,-1.449 -0.235,-0.979 -0.691,-1.909 -1.143,-2.844 -0.543,-0.893 -1.093,-1.806 -1.831,-2.601 -0.333,-0.436 -0.713,-0.777 -1.07,-1.157 -0.161,-0.182 -0.416,-0.385 -0.626,-0.582 l -0.657,-0.59 c -0.189,-0.136 -0.378,-0.272 -0.565,-0.408 -0.205,-0.139 -0.384,-0.33 -0.607,-0.428 -0.435,-0.216 -0.837,-0.509 -1.293,-0.653 -0.223,-0.089 -0.444,-0.178 -0.663,-0.266 -0.23,-0.053 -0.458,-0.113 -0.684,-0.175 -0.447,-0.155 -0.918,-0.153 -1.368,-0.243 -0.456,-0.033 -0.909,-0.055 -1.351,-0.052 -0.442,0.025 -0.877,0.021 -1.293,0.087 -0.21,0.024 -0.416,0.047 -0.617,0.07 -0.201,0.036 -0.397,0.072 -0.588,0.107 -3.052,0.662 -1.683,7.084 -1.683,7.084 0,0 -0.156,-0.315 -0.449,-0.905 -0.295,-0.588 -0.75,-1.432 -1.364,-2.485 -0.611,-1.053 -1.417,-2.292 -2.405,-3.653 -0.995,-1.356 -2.201,-2.819 -3.633,-4.28 C 57.132,14.744 55.462,13.29 53.531,12.043 51.609,10.782 49.403,9.784 47.041,9.155 45.855,8.852 44.625,8.682 43.377,8.6 c -0.627,0 -1.255,-0.041 -1.888,0.016 -0.633,0.013 -1.266,0.092 -1.902,0.165 -1.267,0.192 -2.539,0.46 -3.781,0.886 -0.627,0.187 -1.239,0.434 -1.852,0.682 l -0.432,0.172 -0.477,0.218 -0.954,0.437 c -2.397,1.118 -4.742,2.528 -6.847,4.092 -2.075,1.612 -4.006,3.361 -5.529,5.337 -1.545,1.955 -2.763,4.052 -3.612,6.172 -0.822,2.128 -1.295,4.262 -1.462,6.268 -0.137,2.008 -0.003,3.878 0.284,5.515 0.29,1.638 0.709,3.049 1.132,4.184 0.106,0.285 0.207,0.554 0.301,0.807 0.106,0.249 0.206,0.483 0.298,0.701 0.18,0.439 0.346,0.808 0.497,1.098 0.286,0.593 0.439,0.909 0.439,0.909 0,0 -0.207,-0.284 -0.595,-0.818 -0.199,-0.265 -0.425,-0.604 -0.677,-1.013 -0.129,-0.204 -0.267,-0.422 -0.414,-0.656 -0.132,-0.243 -0.272,-0.501 -0.42,-0.773 -0.312,-0.54 -1.902,-3.69 -3.131,-1.717 -0.31,0.589 -0.643,1.248 -0.905,2.004 -0.067,0.187 -0.136,0.377 -0.206,0.571 -0.055,0.199 -0.11,0.402 -0.167,0.608 -0.129,0.404 -0.201,0.84 -0.291,1.278 -0.087,0.439 -0.125,0.902 -0.192,1.363 -0.005,0.474 -0.076,0.945 -0.062,1.434 0.005,0.975 0.062,1.98 0.227,2.999 0.039,0.254 0.077,0.51 0.116,0.766 l 0.164,0.739 0.157,0.742 0.239,0.815 0.228,0.82 0.014,0.051 0.002,0.006 0.03,0.078 0.069,0.177 0.137,0.354 c 0.092,0.235 0.179,0.473 0.263,0.711 0.076,0.243 0.217,0.448 0.321,0.675 0.111,0.222 0.222,0.444 0.332,0.664 0.102,0.226 0.258,0.415 0.382,0.624 0.131,0.206 0.262,0.41 0.391,0.613 0.141,0.194 0.297,0.376 0.442,0.564 0.149,0.185 0.29,0.377 0.443,0.555 0.167,0.165 0.328,0.333 0.488,0.501 0.305,0.354 0.667,0.631 1.002,0.93 0.68,0.585 1.36,1.137 2.086,1.492 2.984,1.459 2.09,-4.236 2.09,-4.236 l -0.149,-1.035 0.885,-0.518 c 0.935,-0.547 1.785,-0.983 2.695,-1.413 0.901,-0.418 1.81,-0.812 2.728,-1.178 0.918,-0.367 1.843,-0.713 2.78,-1.024 0.936,-0.312 1.878,-0.605 2.827,-0.871 0.947,-0.274 1.906,-0.502 2.867,-0.718 0.961,-0.215 1.929,-0.398 2.898,-0.571 0.972,-0.156 1.944,-0.311 2.921,-0.423 0.974,-0.133 1.957,-0.199 2.938,-0.262 l 1.472,-0.073 1.473,-0.025 c 0.49,-0.015 0.981,-0.001 1.472,0.008 0.491,0.015 0.981,0.005 1.47,0.041 0.979,0.06 1.956,0.127 2.929,0.242 0.975,0.084 1.941,0.251 2.907,0.381 0.482,0.077 0.96,0.183 1.439,0.273 0.479,0.091 0.957,0.185 1.43,0.305 0.949,0.222 1.896,0.441 2.824,0.733 0.936,0.258 1.851,0.588 2.767,0.899 0.912,0.326 1.804,0.707 2.695,1.073 -0.951,-0.185 -1.88,-0.429 -2.828,-0.593 -0.944,-0.175 -1.881,-0.368 -2.831,-0.488 -0.474,-0.063 -0.943,-0.149 -1.416,-0.208 l -1.42,-0.164 c -0.944,-0.119 -1.897,-0.155 -2.841,-0.238 -0.949,-0.038 -1.893,-0.113 -2.84,-0.106 -0.946,-0.023 -1.891,0.001 -2.835,0.031 -0.943,0.03 -1.886,0.067 -2.825,0.144 l -1.408,0.119 -1.403,0.164 c -0.468,0.047 -0.932,0.131 -1.397,0.197 -0.465,0.069 -0.931,0.129 -1.393,0.214 -0.929,0.144 -1.85,0.331 -2.77,0.516 -0.917,0.203 -1.831,0.415 -2.738,0.656 -0.907,0.241 -1.807,0.504 -2.705,0.774 -0.897,0.272 -1.786,0.569 -2.668,0.883 -0.881,0.318 -1.776,0.604 -2.622,1 -4.318,2.02 -3.346,7.651 -3.214,9.025 0,0 1.925,23.636 2.111,23.526 l 0.002,-0.001 c 0.661,-0.469 14.737,-10.228 35.076,-5.9 0.508,0.081 1.015,0.164 1.52,0.27 0.806,0.187 1.617,0.35 2.418,0.566 0.794,0.245 1.599,0.451 2.386,0.731 0.786,0.283 1.575,0.556 2.341,0.908 0.773,0.319 1.527,0.701 2.278,1.095 0.222,-2 0.453,-3.999 0.7,-5.995 0.348,-2.845 0.732,-5.685 1.136,-8.522 0.211,-1.417 0.406,-2.837 0.654,-4.245 0.234,-1.411 0.48,-2.821 0.74,-4.229 0.269,-1.407 0.51,-2.817 0.802,-4.221 0.279,-1.406 0.569,-2.81 0.893,-4.211 0,0.827 3.555,2.227 5.018,1.722 1.461,-0.503 2.979,-1.385 4.157,-2.751 0.594,-0.679 1.104,-1.471 1.548,-2.334 l 0.314,-0.664 c 0.084,-0.22 0.175,-0.437 0.268,-0.654 0.093,-0.216 0.183,-0.512 0.275,-0.764 l 0.069,-0.197 0.024,-0.068 c 0,10e-4 0,0 0.003,-0.01 l 0.006,-0.023 0.013,-0.046 0.103,-0.364 c 0.293,-0.967 0.484,-1.947 0.574,-2.91 0.079,-0.964 0.052,-1.911 -0.088,-2.819 -0.276,-1.816 -1.008,-3.464 -1.864,-4.782 z M 45.998,15.728 c 5.988,-8.94 16.659,7.501 18.055,11.688 1.395,4.186 -19.974,-8.823 -18.055,-11.688 z"
         inkscape:connector-curvature="0"
         style="fill:none" /><path
         id="path4"
         d="m 87.537,36.661 c -1.408,-1.248 -2.028,-2.42 -1.897,-4.514 0.131,-2.093 0,-7.784 -5.56,-12.102 C 74.52,15.728 69.254,17.461 67.618,18.442 65.983,19.423 65.001,20.11 62.123,16.578 59.245,13.046 54.437,5 40.176,5 25.915,5 13.748,18.606 12.636,26.783 11.524,34.96 12.898,36.857 11.524,39.081 10.15,41.305 4.263,44.965 7.926,55.499 11.589,66.032 18.851,66 20.911,66.36 l 4.013,26.476 c 0.14,0.924 7.817,2.699 19.155,-0.005 9.959,-2.375 30.277,5.003 30.878,0.903 0.102,-0.698 0.281,-2.809 0.281,-2.809 0.145,-1.452 0.282,-2.905 0.411,-4.358 0.949,-8.896 2.791,-23.095 5.019,-24.655 3.271,-2.29 8.242,-0.654 11.644,-9.093 3.402,-8.439 -3.368,-14.91 -4.775,-16.158 z m 2.164,10.999 c -0.09,0.963 -0.281,1.943 -0.574,2.91 l -0.103,0.364 -0.013,0.046 -0.006,0.023 c -0.003,0.01 -0.004,0.012 -0.003,0.01 l -0.024,0.068 -0.069,0.197 c -0.092,0.253 -0.182,0.548 -0.275,0.764 -0.093,0.217 -0.184,0.434 -0.268,0.654 l -0.314,0.664 c -0.444,0.863 -0.955,1.654 -1.548,2.334 -1.178,1.367 -2.696,2.249 -4.157,2.751 -1.464,0.505 -5.018,-0.895 -5.018,-1.722 -0.324,1.401 -0.613,2.805 -0.893,4.211 -0.292,1.404 -0.533,2.814 -0.802,4.221 -0.26,1.408 -0.506,2.818 -0.74,4.229 -0.247,1.408 -0.443,2.828 -0.654,4.245 -0.404,2.836 -0.789,5.677 -1.136,8.522 -0.248,1.997 -0.479,3.996 -0.7,5.995 -0.751,-0.393 -1.505,-0.776 -2.278,-1.095 -0.766,-0.352 -1.555,-0.625 -2.341,-0.908 -0.787,-0.28 -1.592,-0.486 -2.386,-0.731 -0.801,-0.216 -1.613,-0.379 -2.418,-0.566 -0.504,-0.106 -1.012,-0.189 -1.52,-0.27 -20.339,-4.327 -34.415,5.431 -35.076,5.9 l -0.002,0.001 c -0.186,0.11 -2.111,-23.526 -2.111,-23.526 -0.132,-1.374 -1.103,-7.005 3.214,-9.025 0.846,-0.396 1.741,-0.682 2.622,-1 0.882,-0.314 1.771,-0.611 2.668,-0.883 0.897,-0.271 1.798,-0.534 2.705,-0.774 0.907,-0.242 1.821,-0.453 2.738,-0.656 0.92,-0.186 1.841,-0.372 2.77,-0.516 0.463,-0.085 0.928,-0.145 1.393,-0.214 0.465,-0.065 0.929,-0.149 1.397,-0.197 l 1.403,-0.164 1.408,-0.119 c 0.939,-0.077 1.882,-0.114 2.825,-0.144 0.944,-0.03 1.889,-0.054 2.835,-0.031 0.948,-0.007 1.891,0.067 2.84,0.106 0.943,0.083 1.897,0.118 2.841,0.238 l 1.42,0.164 c 0.473,0.06 0.942,0.145 1.416,0.208 0.95,0.12 1.887,0.313 2.831,0.488 0.948,0.164 1.876,0.408 2.828,0.593 -0.891,-0.366 -1.783,-0.747 -2.695,-1.073 -0.916,-0.311 -1.831,-0.64 -2.767,-0.899 -0.929,-0.292 -1.875,-0.511 -2.824,-0.733 -0.473,-0.12 -0.951,-0.214 -1.43,-0.305 -0.479,-0.09 -0.957,-0.196 -1.439,-0.273 -0.966,-0.13 -1.932,-0.297 -2.907,-0.381 -0.973,-0.115 -1.95,-0.181 -2.929,-0.242 -0.49,-0.036 -0.98,-0.027 -1.47,-0.041 -0.49,-0.009 -0.981,-0.023 -1.472,-0.008 l -1.473,0.025 -1.472,0.073 c -0.98,0.063 -1.963,0.129 -2.938,0.262 -0.978,0.112 -1.949,0.267 -2.921,0.423 -0.969,0.174 -1.936,0.357 -2.898,0.571 -0.961,0.215 -1.92,0.444 -2.867,0.718 -0.949,0.266 -1.891,0.559 -2.827,0.871 -0.937,0.311 -1.862,0.657 -2.78,1.024 -0.918,0.366 -1.827,0.761 -2.728,1.178 -0.91,0.43 -1.761,0.866 -2.695,1.413 l -0.885,0.518 0.149,1.035 c 0,0 0.894,5.695 -2.09,4.236 -0.726,-0.355 -1.406,-0.907 -2.086,-1.492 -0.335,-0.299 -0.697,-0.577 -1.002,-0.93 -0.16,-0.168 -0.321,-0.336 -0.488,-0.501 -0.153,-0.178 -0.294,-0.37 -0.443,-0.555 -0.146,-0.188 -0.301,-0.37 -0.442,-0.564 -0.13,-0.203 -0.26,-0.407 -0.391,-0.613 -0.124,-0.209 -0.28,-0.398 -0.382,-0.624 -0.11,-0.22 -0.221,-0.442 -0.332,-0.664 -0.104,-0.226 -0.245,-0.432 -0.321,-0.675 -0.084,-0.238 -0.171,-0.475 -0.263,-0.711 l -0.137,-0.354 -0.069,-0.177 -0.03,-0.078 -0.002,-0.006 -0.014,-0.051 -0.228,-0.82 -0.239,-0.815 -0.157,-0.742 -0.164,-0.739 C 10.839,52.05 10.8,51.794 10.762,51.54 10.596,50.521 10.54,49.516 10.535,48.541 c -0.015,-0.489 0.056,-0.96 0.062,-1.434 0.067,-0.461 0.105,-0.924 0.192,-1.363 0.09,-0.438 0.162,-0.875 0.291,-1.278 0.057,-0.206 0.112,-0.409 0.167,-0.608 0.07,-0.194 0.139,-0.385 0.206,-0.571 0.262,-0.756 0.595,-1.415 0.905,-2.004 1.228,-1.974 2.819,1.177 3.131,1.717 0.148,0.272 0.288,0.53 0.42,0.773 0.147,0.233 0.286,0.452 0.414,0.656 0.252,0.409 0.478,0.748 0.677,1.013 0.388,0.533 0.595,0.818 0.595,0.818 0,0 -0.153,-0.316 -0.439,-0.909 -0.151,-0.29 -0.318,-0.659 -0.497,-1.098 -0.093,-0.217 -0.192,-0.451 -0.298,-0.701 -0.095,-0.253 -0.195,-0.523 -0.301,-0.807 -0.424,-1.135 -0.843,-2.545 -1.132,-4.184 -0.287,-1.637 -0.421,-3.507 -0.284,-5.515 0.167,-2.006 0.64,-4.14 1.462,-6.268 0.85,-2.12 2.067,-4.217 3.612,-6.172 1.523,-1.976 3.454,-3.725 5.529,-5.337 2.105,-1.563 4.45,-2.973 6.847,-4.092 l 0.954,-0.437 0.477,-0.218 0.432,-0.172 C 34.569,10.102 35.181,9.854 35.809,9.668 37.051,9.242 38.323,8.975 39.59,8.782 40.226,8.708 40.859,8.63 41.492,8.617 42.122,8.559 42.75,8.6 43.377,8.6 c 1.248,0.082 2.479,0.252 3.664,0.555 2.362,0.628 4.568,1.627 6.49,2.888 1.931,1.247 3.601,2.701 5.043,4.149 1.432,1.461 2.638,2.923 3.633,4.28 0.988,1.361 1.793,2.6 2.405,3.653 0.614,1.053 1.069,1.898 1.364,2.485 0.293,0.59 0.449,0.905 0.449,0.905 0,0 -1.37,-6.423 1.683,-7.084 0.191,-0.035 0.387,-0.07 0.588,-0.107 0.201,-0.023 0.407,-0.046 0.617,-0.07 0.416,-0.066 0.851,-0.062 1.293,-0.087 0.442,-0.003 0.895,0.019 1.351,0.052 0.45,0.091 0.921,0.088 1.368,0.243 0.226,0.062 0.454,0.122 0.684,0.175 0.219,0.088 0.44,0.177 0.663,0.266 0.456,0.144 0.858,0.436 1.293,0.653 0.223,0.099 0.402,0.29 0.607,0.428 0.188,0.135 0.376,0.271 0.565,0.408 l 0.657,0.59 c 0.21,0.196 0.465,0.399 0.626,0.582 0.357,0.38 0.737,0.721 1.07,1.157 0.738,0.795 1.288,1.708 1.831,2.601 0.453,0.935 0.908,1.865 1.143,2.844 0.172,0.475 0.213,0.973 0.335,1.449 0.079,0.483 0.125,0.964 0.18,1.435 0.014,0.474 0.058,0.939 0.05,1.392 -0.016,0.453 -0.006,0.897 -0.042,1.323 -0.037,0.429 -0.072,0.841 -0.105,1.232 -0.056,0.394 -0.109,0.767 -0.159,1.118 -0.104,0.706 -0.238,1.321 -0.322,1.839 -0.127,0.503 -0.203,0.913 -0.267,1.19 -0.056,0.281 -0.086,0.43 -0.086,0.43 0,0 0.087,-0.124 0.251,-0.357 0.156,-0.237 0.402,-0.579 0.683,-1.035 0.248,-0.469 0.597,-1.027 0.901,-1.713 0.148,-0.347 2.52,-0.478 3.863,1.589 0.857,1.319 1.588,2.967 1.867,4.783 0.14,0.908 0.167,1.855 0.088,2.819 z"
         inkscape:connector-curvature="0" /><path
         id="path6"
         d="M 45.998,15.728 C 44.079,18.593 65.448,31.602 64.053,27.416 62.657,23.229 51.986,6.788 45.998,15.728 Z"
         inkscape:connector-curvature="0" /></g></g></svg>