<?xml version="1.0" encoding="UTF-8" standalone="no"?>
<svg
   xmlns:dc="http://purl.org/dc/elements/1.1/"
   xmlns:cc="http://creativecommons.org/ns#"
   xmlns:rdf="http://www.w3.org/1999/02/22-rdf-syntax-ns#"
   xmlns:svg="http://www.w3.org/2000/svg"
   xmlns="http://www.w3.org/2000/svg"
   xmlns:sodipodi="http://sodipodi.sourceforge.net/DTD/sodipodi-0.dtd"
   xmlns:inkscape="http://www.inkscape.org/namespaces/inkscape"
   version="1.1"
   x="0px"
   y="0px"
   viewBox="0 0 79.999999 80"
   xml:space="preserve"
   id="svg10"
   sodipodi:docname="recipe.svg"
   width="80"
   height="80"
   inkscape:version="0.92.2 5c3e80d, 2017-08-06"><metadata
     id="metadata16"><rdf:RDF><cc:Work
         rdf:about=""><dc:format>image/svg+xml</dc:format><dc:type
           rdf:resource="http://purl.org/dc/dcmitype/StillImage" /><dc:title></dc:title></cc:Work></rdf:RDF></metadata><defs
     id="defs14" /><sodipodi:namedview
     pagecolor="#ffffff"
     bordercolor="#666666"
     borderopacity="1"
     objecttolerance="10"
     gridtolerance="10"
     guidetolerance="10"
     inkscape:pageopacity="0"
     inkscape:pageshadow="2"
     inkscape:window-width="2560"
     inkscape:window-height="1371"
     id="namedview12"
     showgrid="false"
     fit-margin-top="0"
     fit-margin-left="0"
     fit-margin-right="0"
     fit-margin-bottom="0"
     inkscape:zoom="1.888"
     inkscape:cx="38.326271"
     inkscape:cy="27.3"
     inkscape:window-x="0"
     inkscape:window-y="0"
     inkscape:window-maximized="1"
     inkscape:current-layer="svg10" /><g
     id="g20"
     transform="translate(-9.55,-10)"><path
       id="path2"
       d="m 36.7,48.1 c 1.8,1.8 4.1,2.6 6.3,2.6 2,0 3.9,-0.7 5.5,-2 l 3.1,3.1 -3.1,3.2 -0.9,-0.9 c -0.4,-0.4 -1,-0.4 -1.4,0 L 33.8,66.4 c -0.7,0.7 -1.1,1.6 -1.1,2.6 0,1 0.4,1.9 1.1,2.6 0.7,0.7 1.6,1.1 2.6,1.1 1,0 1.9,-0.4 2.6,-1.1 L 51.3,59.3 c 0.2,-0.2 0.3,-0.4 0.3,-0.7 0,-0.3 -0.1,-0.5 -0.3,-0.7 l -1.4,-1.4 3.1,-3.1 3.1,3.1 -1.4,1.4 c -0.2,0.2 -0.3,0.4 -0.3,0.7 0,0.3 0.1,0.5 0.3,0.7 L 67,71.6 c 0.7,0.7 1.6,1.1 2.6,1.1 1,0 1.9,-0.4 2.6,-1.1 0.7,-0.7 1.1,-1.6 1.1,-2.6 0,-1 -0.4,-1.9 -1.1,-2.6 L 59.9,54.1 c -0.2,-0.2 -0.4,-0.3 -0.7,-0.3 -0.3,0 -0.5,0.1 -0.7,0.3 l -1,1 -3.1,-3.1 3.1,-3.1 0.4,0.4 c 1.1,1.1 2.6,1.8 4.2,1.8 1.6,0 3.1,-0.6 4.2,-1.8 l 9.2,-9.2 c 0.2,-0.2 0.3,-0.4 0.3,-0.7 0,-0.3 -0.1,-0.5 -0.3,-0.7 l -8.8,-8.8 c -0.4,-0.4 -1,-0.4 -1.4,0 L 56.2,39 c -2.3,2.3 -2.3,6.1 0,8.4 l -3.1,3.1 -3.2,-3.2 c 2.4,-3.4 2.1,-8.2 -1,-11.3 -1.7,-1.7 -4.7,-3.4 -7.6,-4.3 -3.6,-1.2 -6.5,-0.9 -8.1,0.7 -1.6,1.6 -1.8,4.5 -0.7,8.1 0.8,2.9 2.5,5.9 4.2,7.6 z m 0.9,22.1 c -0.6,0.6 -1.7,0.6 -2.4,0 -0.3,-0.3 -0.5,-0.7 -0.5,-1.2 0,-0.5 0.2,-0.9 0.5,-1.2 l 11.6,-11.6 2.4,2.4 z m 21.6,-14 11.6,11.6 c 0.3,0.3 0.5,0.7 0.5,1.2 0,0.5 -0.2,0.9 -0.5,1.2 -0.6,0.6 -1.7,0.6 -2.4,0 L 56.9,58.5 Z m -1.6,-15.8 8.5,-8.5 7.4,7.4 -8.5,8.5 c -0.8,0.8 -1.8,1.2 -2.8,1.2 -1,0 -2.1,-0.4 -2.8,-1.2 L 57.6,46 c -1.5,-1.5 -1.5,-4.1 0,-5.6 z M 34.5,33.8 C 35,33.3 35.9,33 37.1,33 c 1,0 2.2,0.2 3.5,0.6 2.6,0.8 5.3,2.4 6.8,3.8 2.7,2.7 2.8,6.9 0.2,9.5 -2.6,2.6 -6.8,2.5 -9.5,-0.2 -1.5,-1.5 -3,-4.2 -3.8,-6.8 -0.9,-2.9 -0.8,-5.1 0.2,-6.1 z"
       inkscape:connector-curvature="0" /><path
       id="path4"
       d="M 81.6,88.8 V 11.2 c 0,-0.6 -0.4,-1 -1,-1 H 18.5 c -0.6,0 -1,0.4 -1,1 v 77.6 c 0,0.6 0.4,1 1,1 h 62.1 c 0.5,0 1,-0.5 1,-1 z m -56.3,-1 H 19.5 V 12.2 h 5.8 z m 54.3,0 H 27.3 V 12.2 h 52.3 z"
       inkscape:connector-curvature="0" /></g></svg>